<?xml version="1.0" encoding="UTF-8"?>
<svg id="Layer_1" xmlns="http://www.w3.org/2000/svg" version="1.1" xmlns:xlink="http://www.w3.org/1999/xlink" viewBox="0 0 32 32">
  <!-- Generator: Adobe Illustrator 30.0.0, SVG Export Plug-In . SVG Version: 2.1.1 Build 123)  -->
  <defs>
    <style>
      .st0 {
        fill: url(#linear-gradient2);
      }

      .st1 {
        fill: url(#linear-gradient1);
      }

      .st2 {
        fill: url(#linear-gradient4);
      }

      .st3 {
        fill: url(#linear-gradient3);
      }

      .st4 {
        fill: url(#linear-gradient);
      }
    </style>
    <linearGradient id="linear-gradient" x1="-3.8" y1="19.7" x2="31.2" y2="-.5" gradientUnits="userSpaceOnUse">
      <stop offset="0" stop-color="#155e75"/>
      <stop offset=".4" stop-color="#06b6d4"/>
      <stop offset="1" stop-color="#67e8f9"/>
    </linearGradient>
    <linearGradient id="linear-gradient1" x1=".4" y1="17.3" x2="30.4" y2="0" gradientUnits="userSpaceOnUse">
      <stop offset="0" stop-color="#0891b2"/>
      <stop offset=".3" stop-color="#22d3ee"/>
      <stop offset=".5" stop-color="#4fddf2"/>
      <stop offset=".7" stop-color="#86e9f7"/>
      <stop offset=".8" stop-color="#adf2fa"/>
      <stop offset=".9" stop-color="#c6f7fd"/>
      <stop offset="1" stop-color="#cffafe"/>
    </linearGradient>
    <linearGradient id="linear-gradient2" x1="8.7" y1="29.8" x2="38.3" y2="7.9" gradientUnits="userSpaceOnUse">
      <stop offset="0" stop-color="#065f46"/>
      <stop offset=".4" stop-color="#10b981"/>
      <stop offset=".7" stop-color="#3fd09c"/>
      <stop offset="1" stop-color="#6ee7b7"/>
    </linearGradient>
    <linearGradient id="linear-gradient3" x1="9.9" y1="26" x2="36" y2="6.7" gradientUnits="userSpaceOnUse">
      <stop offset="0" stop-color="#059669"/>
      <stop offset=".3" stop-color="#34d399"/>
      <stop offset=".4" stop-color="#46d7a1"/>
      <stop offset=".6" stop-color="#81e6be"/>
      <stop offset=".8" stop-color="#acf0d3"/>
      <stop offset=".9" stop-color="#c7f7e0"/>
      <stop offset="1" stop-color="#d1fae5"/>
    </linearGradient>
    <linearGradient id="linear-gradient4" x1="22.6" y1="25.2" x2="32.3" y2="18" gradientUnits="userSpaceOnUse">
      <stop offset="0" stop-color="#059669"/>
      <stop offset=".4" stop-color="#34d399"/>
      <stop offset=".5" stop-color="#46d7a1"/>
      <stop offset=".6" stop-color="#81e6be"/>
      <stop offset=".8" stop-color="#acf0d3"/>
      <stop offset=".9" stop-color="#c7f7e0"/>
      <stop offset="1" stop-color="#d1fae5"/>
    </linearGradient>
  </defs>
  <polygon id="n-base" class="st4" points="28.6 8 3.5 22.5 3.5 16.5 18.3 8 16.5 6.9 3.5 14.4 3.5 8.5 10 4.7 16.5 1 23 4.7 28.6 8"/>
  <polygon id="n-highlight" class="st1" points="27.6 8 15.1 15.2 11 12.8 19.3 8 16.5 6.4 8.2 11.2 4 8.8 16.5 1.6 27.6 8"/>
  <path id="u-base" class="st0" d="M29.5,15.5l-14.8,8.5,1.8,1,13-7.5v5.9c-3.2,1.9-9.8,5.6-13,7.5-3-1.7-9.1-5.3-12.1-7l25.1-14.5v5.9Z"/>
  <polygon id="u-highlight-1" class="st3" points="29 10.4 29 15.2 22.1 19.2 17.9 16.8 29 10.4"/>
  <polygon id="u-highlight-2" class="st2" points="24.9 20.8 29 18.4 29 23.2 24.9 20.8"/>
</svg>