<svg xmlns="http://www.w3.org/2000/svg" viewBox="0 0 820 180" role="img" aria-labelledby="title desc">
  <title id="title">Nu Graphix logo white</title>
  <desc id="desc">Nu Graphix white wordmark with NG monogram.</desc>
  <defs>
    <linearGradient id="ngBlueDark" x1="0%" y1="0%" x2="100%" y2="100%">
      <stop offset="0%" stop-color="#2F7DBA" />
      <stop offset="100%" stop-color="#1F5E95" />
    </linearGradient>
  </defs>

  <rect x="8" y="18" width="144" height="144" rx="32" fill="url(#ngBlueDark)" />
  <path d="M40 132V48h22l33 50V48h22v84H95L62 82v50H40z" fill="#ffffff" />
  <path d="M126 124c-8 6-18 10-29 10-25 0-44-18-44-44s19-44 44-44c12 0 23 4 31 12l-13 14c-5-4-11-7-18-7-13 0-23 11-23 25s10 25 23 25c5 0 10-1 14-3v-9H97V84h40v40h-11z" fill="#2ECFA0" />

  <g fill="#F9FAFB">
    <text x="186" y="96" font-size="58" font-weight="700" font-family="Avenir Next, Segoe UI, Arial, sans-serif" letter-spacing="-1">Nu Graphix</text>
    <text x="188" y="128" font-size="19" font-weight="500" font-family="Avenir Next, Segoe UI, Arial, sans-serif" fill="#C5D4E7">Template product starter</text>
  </g>
</svg>
