<svg xmlns="http://www.w3.org/2000/svg" viewBox="0 0 1200 630" role="img" aria-labelledby="title desc">
  <title id="title">Nu Graphix construction background</title>
  <desc id="desc">Abstract Nu Graphix branded geometric background.</desc>
  <defs>
    <linearGradient id="bg" x1="0%" y1="0%" x2="100%" y2="100%">
      <stop offset="0%" stop-color="#0E1623" />
      <stop offset="100%" stop-color="#1B2432" />
    </linearGradient>
    <linearGradient id="orbBlue" x1="0%" y1="0%" x2="100%" y2="100%">
      <stop offset="0%" stop-color="#2F7DBA" stop-opacity="0.95" />
      <stop offset="100%" stop-color="#2F7DBA" stop-opacity="0.15" />
    </linearGradient>
    <linearGradient id="orbGreen" x1="0%" y1="0%" x2="100%" y2="100%">
      <stop offset="0%" stop-color="#2ECFA0" stop-opacity="0.85" />
      <stop offset="100%" stop-color="#2ECFA0" stop-opacity="0.1" />
    </linearGradient>
  </defs>

  <rect width="1200" height="630" fill="url(#bg)" />
  <circle cx="1010" cy="120" r="260" fill="url(#orbBlue)" />
  <circle cx="220" cy="560" r="290" fill="url(#orbGreen)" />

  <g stroke="#9FC8E6" stroke-opacity="0.35" fill="none">
    <path d="M100 500C280 420 360 360 520 260C690 155 840 125 1100 132" stroke-width="2" />
    <path d="M90 540C310 450 420 390 575 300C735 207 870 190 1120 198" stroke-width="1.5" />
  </g>

  <g transform="translate(70,72)">
    <rect x="0" y="0" width="138" height="138" rx="30" fill="#2F7DBA" />
    <path d="M29 118V20h20l32 48V20h20v98H81L49 70v48H29z" fill="#fff" />
    <path d="M120 109c-7 5-15 8-24 8-20 0-36-14-36-35s16-35 36-35c10 0 19 3 26 9l-11 11c-4-3-9-5-14-5-10 0-18 9-18 20s8 20 18 20c4 0 8-1 11-2v-7h-12V78h29v31h-5z" fill="#2ECFA0" />
  </g>
</svg>
