<?xml version="1.0" encoding="UTF-8"?>
<svg xmlns="http://www.w3.org/2000/svg" version="1.1" xmlns:xlink="http://www.w3.org/1999/xlink" viewBox="0 0 720 720">
  <!-- Generator: Adobe Illustrator 30.1.0, SVG Export Plug-In . SVG Version: 2.1.1 Build 136)  -->
  <defs>
    <style>
      .st0 {
        opacity: .13;
      }

      .st1 {
        fill: url(#New_Gradient_Swatch_copy_252);
      }

      .st2 {
        fill: url(#linear-gradient2);
      }

      .st3 {
        fill: url(#New_Gradient_Swatch_copy_255);
      }

      .st4 {
        opacity: .27;
      }

      .st5 {
        fill: url(#New_Gradient_Swatch_copy_105);
      }

      .st6 {
        fill: url(#Radial_Gradient_1);
      }

      .st6, .st7, .st8, .st9, .st10, .st11 {
        mix-blend-mode: color-dodge;
      }

      .st12 {
        fill: url(#linear-gradient10);
      }

      .st13 {
        fill: url(#New_Gradient_Swatch_copy_1013);
      }

      .st14 {
        fill: url(#New_Gradient_Swatch_copy_107);
      }

      .st15 {
        opacity: .3;
      }

      .st16 {
        fill: url(#New_Gradient_Swatch_copy_101);
      }

      .st17 {
        fill: url(#linear-gradient9);
      }

      .st18 {
        fill: url(#New_Gradient_Swatch_copy_1016);
      }

      .st19 {
        fill: url(#New_Gradient_Swatch_copy_259);
      }

      .st20 {
        opacity: .15;
      }

      .st21 {
        opacity: .12;
      }

      .st22 {
        opacity: .18;
      }

      .st23 {
        opacity: .22;
      }

      .st24 {
        fill: url(#linear-gradient8);
      }

      .st25 {
        fill: url(#linear-gradient11);
      }

      .st7 {
        fill: url(#New_Gradient_Swatch_copy_6);
      }

      .st26 {
        opacity: .1;
      }

      .st27 {
        fill: url(#New_Gradient_Swatch_copy_102);
      }

      .st28 {
        fill: url(#New_Gradient_Swatch_copy_91);
      }

      .st29 {
        fill: url(#New_Gradient_Swatch_copy_2514);
      }

      .st8 {
        fill: url(#Radial_Gradient_12);
      }

      .st30 {
        fill: url(#New_Gradient_Swatch_copy_9);
      }

      .st31 {
        opacity: .2;
      }

      .st32 {
        fill: url(#New_Gradient_Swatch_copy_258);
      }

      .st33 {
        opacity: .02;
      }

      .st34 {
        fill: url(#New_Gradient_Swatch_copy_256);
      }

      .st35 {
        fill: url(#New_Gradient_Swatch_copy_251);
      }

      .st36 {
        fill: url(#New_Gradient_Swatch_copy_1010);
      }

      .st37 {
        isolation: isolate;
      }

      .st38 {
        opacity: .07;
      }

      .st39 {
        fill: url(#New_Gradient_Swatch_copy_1012);
      }

      .st40 {
        opacity: .17;
      }

      .st41 {
        fill: url(#Linear_Gradient_1);
        mix-blend-mode: multiply;
      }

      .st42 {
        fill: url(#New_Gradient_Swatch_copy_1014);
      }

      .st43 {
        fill: url(#New_Gradient_Swatch_copy_103);
      }

      .st44 {
        fill: url(#New_Gradient_Swatch_copy_2515);
      }

      .st45 {
        opacity: .04;
      }

      .st46 {
        fill: url(#New_Gradient_Swatch_copy_25);
      }

      .st47 {
        fill: url(#linear-gradient12);
      }

      .st48 {
        fill: url(#New_Gradient_Swatch_copy_8);
      }

      .st49 {
        opacity: .05;
      }

      .st50 {
        opacity: .25;
      }

      .st51 {
        opacity: .09;
      }

      .st52 {
        fill: url(#New_Gradient_Swatch_copy_257);
      }

      .st53 {
        fill: url(#New_Gradient_Swatch_copy_2510);
      }

      .st54 {
        fill: url(#New_Gradient_Swatch_copy_108);
      }

      .st55 {
        fill: url(#linear-gradient7);
      }

      .st56 {
        fill: url(#New_Gradient_Swatch_copy_2511);
      }

      .st9 {
        fill: url(#radial-gradient);
      }

      .st57 {
        fill: url(#linear-gradient4);
      }

      .st58, .st59 {
        opacity: .2;
      }

      .st60 {
        fill: url(#New_Gradient_Swatch_copy_2517);
      }

      .st59 {
        fill: url(#linear-gradient1);
      }

      .st61 {
        fill: url(#New_Gradient_Swatch_copy_1017);
      }

      .st62 {
        fill: url(#linear-gradient5);
      }

      .st10 {
        fill: url(#Radial_Gradient_13);
      }

      .st63 {
        fill: url(#linear-gradient3);
      }

      .st64 {
        fill: url(#New_Gradient_Swatch_copy_1015);
      }

      .st65 {
        fill: url(#New_Gradient_Swatch_copy_253);
      }

      .st66 {
        fill: url(#New_Gradient_Swatch_copy_2516);
      }

      .st67 {
        fill: url(#New_Gradient_Swatch_copy_1011);
      }

      .st11 {
        fill: url(#Radial_Gradient_11);
      }

      .st68 {
        fill: url(#New_Gradient_Swatch_copy_10);
      }

      .st69 {
        fill: url(#New_Gradient_Swatch_copy_2513);
      }

      .st70 {
        fill: url(#New_Gradient_Swatch_copy_254);
      }

      .st71 {
        fill: url(#linear-gradient6);
      }

      .st72 {
        opacity: .1;
      }

      .st73 {
        fill: url(#New_Gradient_Swatch_copy_106);
      }

      .st74 {
        fill: url(#New_Gradient_Swatch_copy_109);
      }

      .st75 {
        opacity: .05;
      }

      .st76 {
        fill: url(#linear-gradient13);
      }

      .st77 {
        opacity: .12;
      }

      .st78 {
        opacity: .07;
      }

      .st79 {
        fill: url(#New_Gradient_Swatch_copy_18);
      }

      .st80 {
        fill: url(#linear-gradient);
      }

      .st81 {
        fill: url(#New_Gradient_Swatch_copy_104);
      }

      .st82 {
        fill: url(#New_Gradient_Swatch_copy_2512);
      }

      .st83 {
        opacity: .15;
      }

      .st84 {
        opacity: .17;
      }
    </style>
    <linearGradient id="linear-gradient" x1="711.38" y1="627.47" x2="438.09" y2="627.47" gradientUnits="userSpaceOnUse">
      <stop offset=".04" stop-color="#9f19ab"/>
      <stop offset=".13" stop-color="#a21bac"/>
      <stop offset=".22" stop-color="#ae24b0"/>
      <stop offset=".31" stop-color="#c133b7"/>
      <stop offset=".4" stop-color="#dc48c1"/>
      <stop offset=".48" stop-color="#fe62cd"/>
      <stop offset=".48" stop-color="#ff63ce"/>
      <stop offset=".61" stop-color="#ed55c7"/>
      <stop offset=".74" stop-color="#e04bc2"/>
      <stop offset=".87" stop-color="#dc48c1"/>
    </linearGradient>
    <linearGradient id="New_Gradient_Swatch_copy_9" data-name="New Gradient Swatch copy 9" x1="733.87" y1="281.13" x2="553.36" y2="625.14" gradientUnits="userSpaceOnUse">
      <stop offset=".04" stop-color="#9f19ab"/>
      <stop offset=".24" stop-color="#ae24b0"/>
      <stop offset=".65" stop-color="#d643bf"/>
      <stop offset="1" stop-color="#ff63ce"/>
    </linearGradient>
    <radialGradient id="Radial_Gradient_1" data-name="Radial Gradient 1" cx="413.36" cy="430.34" fx="413.36" fy="430.34" r="20.77" gradientTransform="translate(-967.53 -970.43) scale(3.7)" gradientUnits="userSpaceOnUse">
      <stop offset="0" stop-color="#fff"/>
      <stop offset="1" stop-color="#000"/>
    </radialGradient>
    <linearGradient id="linear-gradient1" y1="642.95" y2="642.95" xlink:href="#linear-gradient"/>
    <linearGradient id="linear-gradient2" x1="513.24" y1="485.96" x2="653.39" y2="515.49" gradientUnits="userSpaceOnUse">
      <stop offset=".01" stop-color="#c1a1d5"/>
      <stop offset=".05" stop-color="#c7abd9"/>
      <stop offset=".11" stop-color="#d9c6e5"/>
      <stop offset=".2" stop-color="#f6f2f9"/>
      <stop offset=".22" stop-color="#fff"/>
      <stop offset=".25" stop-color="#f8f5fa"/>
      <stop offset=".31" stop-color="#e7dbef"/>
      <stop offset=".36" stop-color="#d5bfe3"/>
      <stop offset=".4" stop-color="#c7aee0"/>
      <stop offset=".48" stop-color="#b396dd"/>
      <stop offset=".55" stop-color="#a788db"/>
      <stop offset=".61" stop-color="#a383db"/>
      <stop offset=".76" stop-color="#ad8ddb"/>
      <stop offset="1" stop-color="#c8a6de"/>
    </linearGradient>
    <linearGradient id="New_Gradient_Swatch_copy_91" data-name="New Gradient Swatch copy 9" x1="516.4" y1="349.09" x2="595.23" y2="388.51" xlink:href="#New_Gradient_Swatch_copy_9"/>
    <linearGradient id="linear-gradient3" x1="500.49" y1="556.11" x2="638.45" y2="585.12" gradientUnits="userSpaceOnUse">
      <stop offset="0" stop-color="#c211a1"/>
      <stop offset=".03" stop-color="#c518a4"/>
      <stop offset=".08" stop-color="#cd2caf"/>
      <stop offset=".09" stop-color="#cf30b1"/>
      <stop offset=".21" stop-color="#ff63ce"/>
      <stop offset=".28" stop-color="#eb48bf"/>
      <stop offset=".41" stop-color="#c211a1"/>
      <stop offset=".54" stop-color="#a919ab"/>
      <stop offset=".73" stop-color="#ac17a9"/>
      <stop offset=".9" stop-color="#b714a5"/>
      <stop offset="1" stop-color="#c211a1"/>
    </linearGradient>
    <linearGradient id="linear-gradient4" x1="516.98" y1="477.66" x2="654.95" y2="506.67" xlink:href="#linear-gradient3"/>
    <linearGradient id="linear-gradient5" x1="533.62" y1="398.55" x2="671.58" y2="427.55" xlink:href="#linear-gradient3"/>
    <linearGradient id="New_Gradient_Swatch_copy_18" data-name="New Gradient Swatch copy 18" x1="597.47" y1="378.22" x2="549.59" y2="378.22" gradientUnits="userSpaceOnUse">
      <stop offset=".04" stop-color="#9f19ab"/>
      <stop offset=".16" stop-color="#ae24b0"/>
      <stop offset=".41" stop-color="#d643bf"/>
      <stop offset=".63" stop-color="#ff63ce"/>
      <stop offset=".87" stop-color="#dc48c1"/>
    </linearGradient>
    <linearGradient id="Linear_Gradient_1" data-name="Linear Gradient 1" x1="576.39" y1="369.67" x2="576.39" y2="451.47" gradientUnits="userSpaceOnUse">
      <stop offset="0" stop-color="#fff"/>
      <stop offset="1" stop-color="#000"/>
    </linearGradient>
    <radialGradient id="radial-gradient" cx="-2492.7" cy="-45.96" fx="-2492.7" fy="-45.96" r="21.24" gradientTransform="translate(3627.82 85.41) rotate(-10.9) scale(1.22 3.7)" gradientUnits="userSpaceOnUse">
      <stop offset="0" stop-color="#10054d"/>
      <stop offset=".1" stop-color="#0c033d"/>
      <stop offset=".32" stop-color="#070222"/>
      <stop offset=".54" stop-color="#03000f"/>
      <stop offset=".76" stop-color="#000003"/>
      <stop offset="1" stop-color="#000"/>
    </radialGradient>
    <radialGradient id="New_Gradient_Swatch_copy_6" data-name="New Gradient Swatch copy 6" cx="13960.21" cy="997.95" fx="13960.21" fy="997.95" r="21.24" gradientTransform="translate(17947.26 85.41) rotate(-169.1) scale(1.22 -3.7)" gradientUnits="userSpaceOnUse">
      <stop offset="0" stop-color="#972a74"/>
      <stop offset=".04" stop-color="#8a266a"/>
      <stop offset=".19" stop-color="#601a49"/>
      <stop offset=".35" stop-color="#3d112f"/>
      <stop offset=".51" stop-color="#22091a"/>
      <stop offset=".67" stop-color="#0f040b"/>
      <stop offset=".83" stop-color="#030102"/>
      <stop offset="1" stop-color="#000"/>
    </radialGradient>
    <linearGradient id="linear-gradient6" x1="251.24" y1="430.49" x2="175.97" y2="354.18" gradientUnits="userSpaceOnUse">
      <stop offset=".04" stop-color="#4a4a54"/>
      <stop offset=".91" stop-color="#d4d1d8"/>
    </linearGradient>
    <linearGradient id="linear-gradient7" x1="165.21" y1="419.22" x2="265.27" y2="396.79" xlink:href="#linear-gradient6"/>
    <linearGradient id="linear-gradient8" x1="73.37" y1="530.77" x2="-19.99" y2="467.49" xlink:href="#linear-gradient6"/>
    <linearGradient id="linear-gradient9" x1="-18.05" y1="529.24" x2="80.72" y2="507.09" xlink:href="#linear-gradient6"/>
    <linearGradient id="New_Gradient_Swatch_copy_10" data-name="New Gradient Swatch copy 10" x1="117.06" y1="216.94" x2="833.69" y2="273.34" gradientUnits="userSpaceOnUse">
      <stop offset=".04" stop-color="#9d9eb3"/>
      <stop offset=".58" stop-color="#d4d1d8"/>
      <stop offset="1" stop-color="#eeebf2"/>
    </linearGradient>
    <linearGradient id="New_Gradient_Swatch_copy_101" data-name="New Gradient Swatch copy 10" x1="116.12" y1="238.42" x2="248.2" y2="208.82" xlink:href="#New_Gradient_Swatch_copy_10"/>
    <linearGradient id="New_Gradient_Swatch_copy_102" data-name="New Gradient Swatch copy 10" x1="191.57" y1="-.62" x2="163.89" y2="52.13" xlink:href="#New_Gradient_Swatch_copy_10"/>
    <linearGradient id="New_Gradient_Swatch_copy_103" data-name="New Gradient Swatch copy 10" x1="112.16" y1="279.09" x2="828.83" y2="335.49" xlink:href="#New_Gradient_Swatch_copy_10"/>
    <linearGradient id="New_Gradient_Swatch_copy_104" data-name="New Gradient Swatch copy 10" x1="-297.68" y1="365.6" x2="490.58" y2="188.9" xlink:href="#New_Gradient_Swatch_copy_10"/>
    <linearGradient id="New_Gradient_Swatch_copy_105" data-name="New Gradient Swatch copy 10" x1="191.57" y1="-.62" x2="163.89" y2="52.13" xlink:href="#New_Gradient_Swatch_copy_10"/>
    <linearGradient id="New_Gradient_Swatch_copy_106" data-name="New Gradient Swatch copy 10" x1="836" y1="281.58" x2="1610.79" y2="16.13" gradientTransform="translate(-1094.24 299.85) rotate(1.25) scale(1.14 .88) skewX(-15.64)" xlink:href="#New_Gradient_Swatch_copy_10"/>
    <linearGradient id="New_Gradient_Swatch_copy_107" data-name="New Gradient Swatch copy 10" x1="1187.81" y1="114.67" x2="1161.99" y2="163.88" gradientTransform="translate(-1094.24 299.85) rotate(1.25) scale(1.14 .88) skewX(-15.64)" xlink:href="#New_Gradient_Swatch_copy_10"/>
    <linearGradient id="New_Gradient_Swatch_copy_108" data-name="New Gradient Swatch copy 10" x1="355.67" y1="333.57" x2="1125.4" y2="527.11" xlink:href="#New_Gradient_Swatch_copy_10"/>
    <linearGradient id="New_Gradient_Swatch_copy_109" data-name="New Gradient Swatch copy 10" x1="340.59" y1="366.78" x2="472.67" y2="337.17" xlink:href="#New_Gradient_Swatch_copy_10"/>
    <linearGradient id="New_Gradient_Swatch_copy_1010" data-name="New Gradient Swatch copy 10" x1="416.04" y1="127.74" x2="388.36" y2="180.48" xlink:href="#New_Gradient_Swatch_copy_10"/>
    <linearGradient id="New_Gradient_Swatch_copy_1011" data-name="New Gradient Swatch copy 10" x1="337.09" y1="407.46" x2="1106.82" y2="601" xlink:href="#New_Gradient_Swatch_copy_10"/>
    <linearGradient id="New_Gradient_Swatch_copy_1012" data-name="New Gradient Swatch copy 10" x1="-73.21" y1="493.95" x2="715.05" y2="317.25" xlink:href="#New_Gradient_Swatch_copy_10"/>
    <linearGradient id="New_Gradient_Swatch_copy_1013" data-name="New Gradient Swatch copy 10" x1="416.04" y1="127.74" x2="388.36" y2="180.48" xlink:href="#New_Gradient_Swatch_copy_10"/>
    <linearGradient id="linear-gradient10" x1="475.2" y1="558.47" x2="399.93" y2="482.16" xlink:href="#linear-gradient6"/>
    <linearGradient id="linear-gradient11" x1="389.17" y1="547.19" x2="489.23" y2="524.76" xlink:href="#linear-gradient6"/>
    <linearGradient id="linear-gradient12" x1="297.33" y1="658.75" x2="203.98" y2="595.47" xlink:href="#linear-gradient6"/>
    <linearGradient id="linear-gradient13" x1="205.92" y1="657.21" x2="304.68" y2="635.08" xlink:href="#linear-gradient6"/>
    <linearGradient id="New_Gradient_Swatch_copy_1014" data-name="New Gradient Swatch copy 10" x1="299.78" y1="475.87" x2="233.43" y2="345.37" xlink:href="#New_Gradient_Swatch_copy_10"/>
    <linearGradient id="New_Gradient_Swatch_copy_1015" data-name="New Gradient Swatch copy 10" x1="-471.18" y1="546" x2="972.01" y2="222.48" gradientTransform="translate(-58.05 -298.51) rotate(29.85) scale(.96 1.05) skewX(39.83)" xlink:href="#New_Gradient_Swatch_copy_10"/>
    <linearGradient id="New_Gradient_Swatch_copy_1016" data-name="New Gradient Swatch copy 10" x1="99.24" y1="15.2" x2="375.33" y2="353.55" gradientTransform="translate(36.29 19.06) rotate(1.75) scale(1.11 .9) skewX(-12.18)" xlink:href="#New_Gradient_Swatch_copy_10"/>
    <linearGradient id="New_Gradient_Swatch_copy_1017" data-name="New Gradient Swatch copy 10" x1="-404.62" y1="430.72" x2="1038.55" y2="107.21" gradientTransform="translate(-58.05 -298.51) rotate(29.85) scale(.96 1.05) skewX(39.83)" xlink:href="#New_Gradient_Swatch_copy_10"/>
    <radialGradient id="Radial_Gradient_11" data-name="Radial Gradient 1" cx="359.97" cy="341.92" fx="359.97" fy="341.92" r="23.37" xlink:href="#Radial_Gradient_1"/>
    <radialGradient id="Radial_Gradient_12" data-name="Radial Gradient 1" cx="364.15" cy="314.47" fx="364.15" fy="314.47" r="25.25" xlink:href="#Radial_Gradient_1"/>
    <linearGradient id="New_Gradient_Swatch_copy_8" data-name="New Gradient Swatch copy 8" x1="-12.07" y1="260.19" x2="400.35" y2="255.64" gradientUnits="userSpaceOnUse">
      <stop offset=".04" stop-color="#ffa98c"/>
      <stop offset=".32" stop-color="#feb892"/>
      <stop offset=".86" stop-color="#fee0a3"/>
      <stop offset="1" stop-color="#feeca8"/>
    </linearGradient>
    <linearGradient id="New_Gradient_Swatch_copy_25" data-name="New Gradient Swatch copy 25" x1="82.79" y1="251.24" x2="377.57" y2="264.87" gradientUnits="userSpaceOnUse">
      <stop offset="0" stop-color="#25054d"/>
      <stop offset="1" stop-color="#45108a"/>
    </linearGradient>
    <radialGradient id="Radial_Gradient_13" data-name="Radial Gradient 1" cx="334.56" cy="322.42" fx="334.56" fy="322.42" r="19.62" xlink:href="#Radial_Gradient_1"/>
    <linearGradient id="New_Gradient_Swatch_copy_251" data-name="New Gradient Swatch copy 25" x1="85.71" y1="188.16" x2="380.5" y2="201.8" xlink:href="#New_Gradient_Swatch_copy_25"/>
    <linearGradient id="New_Gradient_Swatch_copy_252" data-name="New Gradient Swatch copy 25" x1="84.59" y1="212.42" x2="379.33" y2="226.05" xlink:href="#New_Gradient_Swatch_copy_25"/>
    <linearGradient id="New_Gradient_Swatch_copy_253" data-name="New Gradient Swatch copy 25" x1="83.68" y1="231.9" x2="378.47" y2="245.54" xlink:href="#New_Gradient_Swatch_copy_25"/>
    <linearGradient id="New_Gradient_Swatch_copy_254" data-name="New Gradient Swatch copy 25" x1="82.61" y1="255.15" x2="377.39" y2="268.79" xlink:href="#New_Gradient_Swatch_copy_25"/>
    <linearGradient id="New_Gradient_Swatch_copy_255" data-name="New Gradient Swatch copy 25" x1="81.66" y1="275.42" x2="376.45" y2="289.06" xlink:href="#New_Gradient_Swatch_copy_25"/>
    <linearGradient id="New_Gradient_Swatch_copy_256" data-name="New Gradient Swatch copy 25" x1="83.28" y1="240.67" x2="378.06" y2="254.3" xlink:href="#New_Gradient_Swatch_copy_25"/>
    <linearGradient id="New_Gradient_Swatch_copy_257" data-name="New Gradient Swatch copy 25" x1="82.85" y1="250.25" x2="377.59" y2="263.89" xlink:href="#New_Gradient_Swatch_copy_25"/>
    <linearGradient id="New_Gradient_Swatch_copy_258" data-name="New Gradient Swatch copy 25" x1="82.38" y1="260.06" x2="377.18" y2="273.69" xlink:href="#New_Gradient_Swatch_copy_25"/>
    <linearGradient id="New_Gradient_Swatch_copy_259" data-name="New Gradient Swatch copy 25" x1="81.93" y1="269.59" x2="376.75" y2="283.23" xlink:href="#New_Gradient_Swatch_copy_25"/>
    <linearGradient id="New_Gradient_Swatch_copy_2510" data-name="New Gradient Swatch copy 25" x1="81.63" y1="276.56" x2="376.38" y2="290.19" xlink:href="#New_Gradient_Swatch_copy_25"/>
    <linearGradient id="New_Gradient_Swatch_copy_2511" data-name="New Gradient Swatch copy 25" x1="81.13" y1="287.26" x2="375.89" y2="300.9" xlink:href="#New_Gradient_Swatch_copy_25"/>
    <linearGradient id="New_Gradient_Swatch_copy_2512" data-name="New Gradient Swatch copy 25" x1="80.75" y1="295.67" x2="375.5" y2="309.3" xlink:href="#New_Gradient_Swatch_copy_25"/>
    <linearGradient id="New_Gradient_Swatch_copy_2513" data-name="New Gradient Swatch copy 25" x1="80.25" y1="306.61" x2="374.99" y2="320.25" xlink:href="#New_Gradient_Swatch_copy_25"/>
    <linearGradient id="New_Gradient_Swatch_copy_2514" data-name="New Gradient Swatch copy 25" x1="79.9" y1="313.98" x2="374.66" y2="327.61" xlink:href="#New_Gradient_Swatch_copy_25"/>
    <linearGradient id="New_Gradient_Swatch_copy_2515" data-name="New Gradient Swatch copy 25" x1="79.51" y1="321.71" x2="374.32" y2="335.35" xlink:href="#New_Gradient_Swatch_copy_25"/>
    <linearGradient id="New_Gradient_Swatch_copy_2516" data-name="New Gradient Swatch copy 25" x1="79.21" y1="328.67" x2="373.99" y2="342.3" xlink:href="#New_Gradient_Swatch_copy_25"/>
    <linearGradient id="New_Gradient_Swatch_copy_2517" data-name="New Gradient Swatch copy 25" x1="78.77" y1="338.47" x2="373.53" y2="352.1" xlink:href="#New_Gradient_Swatch_copy_25"/>
  </defs>
  <g class="st37">
    <g id="Layer_1">
      <g>
        <g>
          <path class="st80" d="M709.79,588.04v-3.62h-268.05v6.63h.05c-1.63,12.1,4.79,23.9,19.63,32.47l61.54,35.53c29.46,17,80.91,14.87,114.92-4.77l43.99-25.4c20.18-11.65,29.69-26.85,27.93-40.84Z"/>
          <path class="st30" d="M522.95,648.47l-61.54-35.53c-29.46-17-25.76-46.71,8.25-66.35l43.99-25.4c34.01-19.64,85.46-21.77,114.92-4.77l61.54,35.53c29.46,17,25.76,46.71-8.25,66.35l-43.99,25.4c-34.01,19.64-85.46,21.77-114.92,4.77Z"/>
          <path class="st6" d="M681.86,615.72l-43.98,25.4c-34.02,19.64-85.46,21.77-114.92,4.76l-61.54-35.53c-12.47-7.2-18.93-16.68-19.74-26.7-.82,11.5,5.59,22.59,19.74,30.76l61.54,35.53c29.46,17.01,80.91,14.87,114.92-4.76l43.98-25.4c19.62-11.32,29.08-25.99,27.99-39.65-.9,12.45-10.3,25.38-27.99,35.59Z"/>
          <path class="st59" d="M709.79,603.52v-3.62h-.05c-1.6,11.92-10.99,24.14-27.87,33.88l-43.98,25.4c-34.02,19.64-85.46,21.77-114.92,4.76l-61.54-35.53c-12.29-7.1-18.73-16.42-19.68-26.28v4.4h.05c-1.63,12.1,4.79,23.9,19.63,32.46l61.54,35.53c29.46,17,80.91,14.88,114.92-4.77l43.99-25.39c20.18-11.66,29.69-26.86,27.93-40.84Z"/>
          <g>
            <path class="st2" d="M602.71,378.99h-52.63l-57.23,193.69h.03c0,.22-.03.45-.03.67,0,26.87,37.4,48.65,83.54,48.65s83.53-21.78,83.53-48.65c0-.22-.02-.45-.03-.67h.03l-57.22-193.69Z"/>
            <path class="st28" d="M602.71,379.09c0,8.46-11.78,15.32-26.31,15.32s-26.32-6.86-26.32-15.32,11.78-15.32,26.32-15.32,26.31,6.86,26.31,15.32Z"/>
            <g>
              <path class="st63" d="M659.93,572.67l-11.36-38.45c.03.46.06.92.06,1.38,0,23.23-32.35,42.07-72.24,42.07s-72.24-18.84-72.24-42.07c0-.46.03-.92.06-1.38l-11.36,38.45h.03c0,.22-.03.45-.03.67,0,26.87,37.4,48.65,83.54,48.65s83.53-21.78,83.53-48.65c0-.22-.02-.45-.03-.67h.03Z"/>
              <path class="st57" d="M625.62,456.55c.01.26.04.53.04.8,0,15.84-22.06,28.69-49.27,28.69s-49.28-12.85-49.28-28.69c0-.31.06-.6.08-.91l-11.59,39.22c.02.36.03.64.03.82,0,19.54,27.2,35.38,60.76,35.38s60.76-15.84,60.76-35.38c0-.17.04-.43.07-.67l-11.6-39.26Z"/>
              <path class="st62" d="M602.71,378.99h-.01s.01.07.01.1c0,8.46-11.78,15.32-26.31,15.32s-26.32-6.86-26.32-15.32c0-.04.01-.07.01-.1h-.01l-11.48,38.86v.37c0,12.16,16.92,22.01,37.8,22.01s37.79-9.86,37.79-22.01v-.37l-11.48-38.86Z"/>
            </g>
            <path class="st79" d="M598.01,378.22c0,6.09-9.68,11.03-21.62,11.03s-21.62-4.94-21.62-11.03,9.68-11.03,21.62-11.03,21.62,4.94,21.62,11.03Z"/>
            <path class="st41" d="M598.01,378.22c0,6.09-9.68,11.03-21.62,11.03s-21.62-4.94-21.62-11.03,9.68-11.03,21.62-11.03,21.62,4.94,21.62,11.03Z"/>
            <path class="st9" d="M598.35,372.1l-17.02,3.28,18.14,193.76h.01c.04.22.08.44.12.66,5.08,26.38,21.3,45.44,36.21,42.56,14.92-2.87,22.89-26.59,17.81-52.97-.04-.22-.09-.44-.13-.66h0l-55.15-186.63Z"/>
            <path class="st7" d="M558.07,372.1l17.02,3.28-18.14,193.76h-.01c-.04.22-.08.44-.12.66-5.09,26.38-21.3,45.44-36.22,42.56-14.92-2.87-22.89-26.59-17.81-52.97.04-.22.09-.44.13-.66h-.01l55.15-186.63Z"/>
          </g>
        </g>
        <g>
          <g class="st58">
            <polygon class="st71" points="220.68 403.3 216.36 431.05 241.34 416.68 245.66 388.92 220.68 403.3"/>
            <polygon class="st55" points="220.75 403.3 216.43 431.05 191.66 416.68 195.97 388.99 220.75 403.3"/>
          </g>
          <g class="st58">
            <polygon class="st24" points="34.79 513.34 50.38 537.78 75.35 523.4 59.77 498.96 34.79 513.34"/>
            <polygon class="st17" points="34.86 513.34 50.44 537.78 25.67 523.4 10.09 499.03 34.86 513.34"/>
          </g>
          <g>
            <polygon class="st68" points="165.71 62.76 220.37 399.43 245.35 385.06 190.68 48.38 165.71 62.76"/>
            <polygon class="st16" points="165.77 62.76 220.44 399.43 195.67 385.06 141 48.45 165.77 62.76"/>
            <polygon class="st27" points="141 48.45 165.77 62.76 190.68 48.38 165.77 34 141 48.45"/>
          </g>
          <g>
            <polygon class="st33" points="10 495.5 246.21 354.71 500.02 495.17 258.83 641.32 10 495.5"/>
            <polygon class="st45" points="18.5 494.27 245.81 358.63 494.19 495.22 259.94 636.48 18.5 494.27"/>
            <polygon class="st49" points="27.01 493.03 245.4 362.55 488.36 495.27 261.06 631.64 27.01 493.03"/>
            <polygon class="st38" points="35.51 491.79 245 366.47 482.53 495.32 262.17 626.79 35.51 491.79"/>
            <polygon class="st51" points="44.02 490.56 244.6 370.4 476.69 495.37 263.29 621.95 44.02 490.56"/>
            <polygon class="st72" points="52.52 489.32 244.2 374.32 470.86 495.42 264.4 617.11 52.52 489.32"/>
            <polygon class="st21" points="61.02 488.08 243.79 378.24 465.03 495.47 265.52 612.27 61.02 488.08"/>
            <polygon class="st0" points="69.53 486.84 243.39 382.16 459.2 495.52 266.63 607.43 69.53 486.84"/>
            <polygon class="st83" points="78.03 485.61 242.99 386.08 453.37 495.57 267.75 602.59 78.03 485.61"/>
            <polygon class="st84" points="86.54 484.37 242.59 390 447.54 495.62 268.86 597.74 86.54 484.37"/>
            <polygon class="st22" points="95.04 483.13 242.18 393.92 441.71 495.67 269.98 592.9 95.04 483.13"/>
            <polygon class="st58" points="103.54 481.9 241.78 397.84 435.87 495.72 271.09 588.06 103.54 481.9"/>
          </g>
          <g>
            <polygon class="st43" points="165.71 62.76 34.7 509.88 59.68 495.5 190.68 48.38 165.71 62.76"/>
            <polygon class="st81" points="165.77 62.76 34.77 509.88 10 495.5 141 48.45 165.77 62.76"/>
            <polygon class="st5" points="141 48.45 165.77 62.76 190.68 48.38 165.77 34 141 48.45"/>
          </g>
          <g>
            <polygon class="st73" points="264.7 529.32 260.81 539.42 62.44 426.52 66.33 416.44 264.7 529.32"/>
            <polygon class="st14" points="66.33 416.44 264.7 529.32 278.87 521.3 80.45 408.39 66.33 416.44"/>
          </g>
          <g>
            <polygon class="st54" points="390.18 191.11 444.84 527.79 469.82 513.41 415.15 176.73 390.18 191.11"/>
            <polygon class="st74" points="390.24 191.11 444.92 527.79 420.14 513.41 365.47 176.81 390.24 191.11"/>
            <polygon class="st36" points="365.47 176.81 390.24 191.11 415.15 176.73 390.24 162.35 365.47 176.81"/>
          </g>
          <g>
            <polygon class="st67" points="390.18 191.11 259.18 638.24 284.15 623.86 415.15 176.73 390.18 191.11"/>
            <polygon class="st39" points="390.24 191.11 259.24 638.24 234.47 623.86 365.47 176.81 390.24 191.11"/>
            <polygon class="st13" points="365.47 176.81 390.24 191.11 415.15 176.73 390.24 162.35 365.47 176.81"/>
          </g>
          <g class="st58">
            <polygon class="st12" points="444.65 531.28 440.33 559.03 465.3 544.66 469.62 516.9 444.65 531.28"/>
            <polygon class="st25" points="444.71 531.28 440.4 559.03 415.63 544.66 419.94 516.97 444.71 531.28"/>
          </g>
          <g class="st58">
            <polygon class="st47" points="258.76 641.32 274.34 665.76 299.31 651.37 283.73 626.94 258.76 641.32"/>
            <polygon class="st76" points="258.83 641.32 274.41 665.76 249.63 651.37 234.05 627.01 258.83 641.32"/>
          </g>
          <g>
            <path class="st42" d="M349.27,450.05L54.06,280.1c-12.46-7.15-18.8-25.51-14.16-41.01l14.16-47.3c2.36-7.86-7.16-8.31-1.44-11,.47-.22,15.19-5.58,15.67-5.77,5.21-1.96,11.12-1.57,16.74,1.66l295.21,169.94c12.46,7.15,18.8,25.52,14.16,41.02l-14.17,47.3c-2.54,8.48-7.84,14.34-14.15,16.74-.21.08-15.22,5.71-15.43,5.78-5.08,1.73,4.03-4.29-1.39-7.41Z"/>
            <path class="st64" d="M334.37,455.63L39.16,285.68c-12.47-7.15-18.81-25.51-14.17-41.01l14.17-47.3c4.64-15.5,18.5-22.26,30.97-15.11l295.21,169.94c12.47,7.15,18.8,25.52,14.16,41.01l-14.16,47.3c-4.65,15.5-18.51,22.26-30.97,15.11Z"/>
            <path class="st18" d="M384.83,331.3L89.62,161.36c-12.47-7.15-18.8-25.52-14.16-41.01l14.16-47.3c2.36-7.87-7.16-8.31-1.45-11,.47-.22,15.19-5.59,15.67-5.77,5.22-1.96,11.13-1.57,16.75,1.66l295.2,169.94c12.47,7.15,18.8,25.51,14.16,41.01l-14.16,47.3c-2.54,8.47-7.83,14.34-14.15,16.74-.2.08-15.22,5.71-15.43,5.77-5.08,1.74,4.04-4.29-1.39-7.41Z"/>
            <path class="st61" d="M369.93,336.88L74.72,166.94c-12.47-7.15-18.8-25.52-14.16-41.01l14.16-47.29c4.64-15.5,18.51-22.26,30.97-15.11l295.2,169.95c12.47,7.15,18.8,25.51,14.17,41.01l-14.17,47.3c-4.64,15.5-18.5,22.26-30.97,15.11Z"/>
            <path class="st11" d="M367.65,351.24L72.45,181.29c-5.41-3.11-11.08-3.56-16.14-1.83,3.9-.37,7.99.48,11.94,2.75l295.21,169.94c12.46,7.15,18.8,25.52,14.16,41.01l-14.16,47.3c-2.28,7.62-6.8,13.11-12.28,15.89,1.49-.14,2.93-.53,4.35-1.04,5.41-2.8,9.88-8.22,12.13-15.77l14.16-47.29c4.65-15.5-1.7-33.86-14.16-41.02Z"/>
            <path class="st8" d="M403.22,232.49L108.01,62.55c-5.41-3.11-11.08-3.56-16.16-1.84,3.9-.37,7.99.48,11.94,2.75l295.21,169.94c12.46,7.15,18.8,25.51,14.16,41.01l-14.16,47.3c-2.28,7.62-6.8,13.11-12.28,15.89,1.49-.15,2.94-.54,4.35-1.04,5.41-2.8,9.87-8.22,12.13-15.77l14.16-47.3c4.64-15.5-1.7-33.86-14.16-41.01Z"/>
            <g>
              <polygon class="st33" points="323.89 426.64 63.42 277.15 122.25 82.56 382.72 232.05 323.89 426.64"/>
              <polygon class="st75" points="322.96 425.25 64.87 277.14 123 84.71 381.09 232.83 322.96 425.25"/>
              <polygon class="st78" points="322.03 423.87 66.32 277.12 123.75 86.86 379.46 233.61 322.03 423.87"/>
              <polygon class="st26" points="321.1 422.48 67.77 277.1 124.5 89.01 377.83 234.4 321.1 422.48"/>
              <polygon class="st77" points="320.17 421.1 69.22 277.08 125.25 91.17 376.2 235.18 320.17 421.1"/>
              <polygon class="st20" points="319.24 419.71 70.67 277.06 126.01 93.32 374.57 235.97 319.24 419.71"/>
              <polygon class="st40" points="318.31 418.33 72.12 277.05 126.76 95.47 372.94 236.75 318.31 418.33"/>
              <polygon class="st31" points="317.38 416.94 73.57 277.03 127.51 97.62 371.31 237.54 317.38 416.94"/>
              <polygon class="st23" points="316.44 415.56 75.03 277.01 128.26 99.77 369.68 238.32 316.44 415.56"/>
              <polygon class="st50" points="315.51 414.17 76.48 276.99 129.01 101.92 368.05 239.11 315.51 414.17"/>
              <polygon class="st4" points="314.58 412.79 77.93 276.97 129.76 104.07 366.42 239.89 314.58 412.79"/>
              <polygon class="st15" points="313.65 411.41 79.38 276.96 130.51 106.23 364.78 240.68 313.65 411.41"/>
            </g>
            <polygon class="st48" points="317.7 421.74 65.75 277.15 120.74 93.53 372.69 238.13 317.7 421.74"/>
            <path class="st46" d="M131.06,116.78l222.6,127.76-46.06,153.8-222.6-127.75,46.06-153.8h0ZM128.56,110.5l-48.54,162.06,230.08,132.04,48.53-162.06L128.56,110.5h0Z"/>
            <polygon class="st10" points="120.74 93.53 119.6 96.56 369.62 239.41 315.77 420 317.7 421.74 372.69 238.13 120.74 93.53"/>
            <g>
              <path class="st35" d="M125.41,203.93c-2-4.41-2.15-9.45-.45-15.1l7.39-24.67c.13-.44.36-.74.69-.88.33-.14.71-.09,1.12.15l5.21,2.99c.41.23.71.57.89,1.01s.2.87.07,1.32l-7.39,24.67c-.95,3.19-.96,6-.04,8.43.93,2.43,2.7,4.39,5.31,5.89,2.6,1.5,4.86,1.84,6.76,1.04,1.9-.8,3.32-2.8,4.28-5.99l7.39-24.67c.13-.44.37-.73.72-.86.35-.13.73-.08,1.15.16l5.21,2.99c.42.24.7.57.86.99.16.42.18.86.04,1.3l-7.39,24.67c-1.69,5.66-4.37,9.07-8.01,10.24-3.65,1.18-8.02.3-13.12-2.63-5.13-2.94-8.7-6.63-10.7-11.04Z"/>
              <path class="st1" d="M162.8,229.08c-.18-.43-.21-.85-.09-1.26l11.82-39.45c.13-.45.36-.74.69-.88.33-.14.7-.09,1.12.14l4.42,2.54c.72.41,1.16,1.07,1.33,1.97l8.14,36.2,7.91-26.43c.13-.44.36-.74.7-.88.33-.14.7-.09,1.12.14l4.86,2.8c.42.24.72.57.9,1.01.18.44.2.87.07,1.32l-11.8,39.39c-.13.44-.37.73-.72.87-.35.13-.72.09-1.09-.13l-4.48-2.57c-.76-.44-1.22-1.1-1.39-2l-8.26-35.57-7.75,25.88c-.12.4-.35.68-.67.82-.33.14-.7.09-1.12-.14l-4.87-2.79c-.38-.22-.66-.55-.84-.98Z"/>
              <path class="st65" d="M204.26,252.88c-.18-.43-.21-.86-.09-1.26l11.82-39.45c.13-.45.37-.74.7-.88.32-.14.7-.1,1.11.15l13.82,7.93c11.14,6.39,15.18,15.15,12.11,26.27-.63,2.39-1.06,3.99-1.3,4.79-.23.77-.74,2.31-1.51,4.61-1.85,5.57-4.52,8.93-8.03,10.06-3.51,1.13-8.07.09-13.69-3.14l-14.1-8.09c-.38-.22-.66-.54-.83-.98ZM221.02,254.75c3.13,1.8,5.62,2.35,7.47,1.66,1.84-.69,3.32-2.75,4.44-6.19.81-2.38,1.3-3.87,1.48-4.48.19-.65.6-2.16,1.23-4.55.92-3.36.87-6.23-.13-8.64-1.01-2.4-3.09-4.51-6.27-6.33l-6.91-3.97-8.5,28.36,7.19,4.13Z"/>
              <path class="st70" d="M245.49,276.54c-.18-.43-.21-.85-.09-1.26l11.82-39.45c.13-.45.36-.74.69-.88.33-.14.7-.09,1.12.15l24.97,14.33c.42.24.71.57.89,1.01.18.43.21.87.07,1.32l-1.21,4.06c-.14.45-.38.72-.72.83-.35.11-.72.05-1.14-.19l-18.57-10.66-3.18,10.61,17.33,9.94c.42.24.72.58.9,1.01.18.44.2.88.07,1.32l-1.15,3.82c-.13.45-.37.72-.71.83-.35.11-.72.05-1.14-.19l-17.33-9.94-3.28,10.97,19.03,10.92c.42.24.72.56.9.98.19.42.22.85.08,1.29l-1.23,4.12c-.13.44-.37.72-.71.83-.35.11-.72.05-1.14-.19l-25.42-14.59c-.38-.22-.66-.55-.84-.98Z"/>
              <path class="st3" d="M282.18,297.6c-.18-.43-.21-.86-.09-1.26l11.82-39.45c.13-.45.37-.74.7-.88.33-.14.7-.09,1.12.15l14.67,8.42c4.65,2.66,7.93,5.9,9.86,9.71,1.94,3.81,2.27,7.83,1,12.08-.89,2.95-2.29,5.04-4.21,6.29-1.92,1.24-4.21,1.63-6.85,1.15l3.58,20.17c.04.31.04.56-.03.77-.11.36-.32.59-.64.7-.32.1-.63.06-.94-.11l-5.21-2.99c-.61-.35-1.03-.77-1.29-1.26-.25-.5-.43-1.07-.55-1.71l-2.94-18.52-7.76-4.45-4.36,14.55c-.12.4-.35.67-.7.8-.35.13-.73.08-1.15-.16l-5.21-2.99c-.38-.22-.66-.54-.84-.98ZM304.38,283.99c2.27,1.3,4.13,1.74,5.58,1.32,1.45-.42,2.49-1.66,3.1-3.72.62-2.06.52-3.97-.27-5.73-.8-1.76-2.33-3.29-4.6-4.59l-7.87-4.52-3.81,12.73,7.87,4.52Z"/>
              <path class="st34" d="M106.9,247.15c-.82-2.07-.91-4.31-.29-6.73.13-.52.37-1.35.71-2.5.35-1.17.61-2.01.79-2.53.79-2.32,2.01-3.81,3.64-4.47,1.63-.66,3.61-.33,5.95,1.02,1.56.9,2.81,1.96,3.72,3.18s1.5,2.47,1.76,3.74c.27,1.28.27,2.48,0,3.6-.05.17-.15.27-.29.31-.15.04-.3.01-.46-.08l-1.32-.75c-.18-.1-.3-.23-.38-.39-.08-.15-.11-.36-.09-.61.13-1.62-.1-2.94-.71-3.98-.6-1.03-1.58-1.93-2.92-2.7-3.05-1.75-5.19-.85-6.41,2.74-.17.5-.41,1.27-.73,2.32-.31,1.06-.55,1.86-.7,2.41-.96,3.7.09,6.43,3.14,8.18,1.32.76,2.46,1.07,3.43.94.97-.13,1.81-.82,2.54-2.08.11-.2.25-.31.38-.35.13-.03.29,0,.46.1l1.32.76c.16.09.28.22.36.39.09.17.1.34.05.51-.38,1.06-.99,1.91-1.83,2.55-.84.64-1.89.95-3.16.91-1.27-.03-2.68-.49-4.25-1.39-2.33-1.35-3.91-3.05-4.73-5.11Z"/>
              <path class="st52" d="M125.09,257.72c-.86-2-.94-4.32-.23-6.96.15-.57.38-1.38.69-2.41.3-1.03.55-1.82.73-2.35.84-2.52,2.1-4.07,3.79-4.64,1.68-.57,3.63-.23,5.83,1.03,2.2,1.26,3.74,2.92,4.63,4.97.88,2.05.98,4.38.28,6.98-.29,1.11-.51,1.91-.65,2.4-.14.47-.4,1.26-.77,2.37-.85,2.56-2.09,4.12-3.71,4.7-1.63.58-3.58.21-5.87-1.1-2.28-1.31-3.86-2.97-4.72-4.98ZM134.3,260.92c1.11-.43,1.99-1.56,2.62-3.4.38-1.11.61-1.85.73-2.23.12-.42.33-1.18.62-2.29.49-1.92.45-3.58-.12-4.99-.57-1.4-1.55-2.51-2.96-3.32-1.4-.81-2.67-.99-3.8-.56-1.13.43-2,1.58-2.62,3.43-.18.54-.42,1.28-.7,2.24-.29.94-.5,1.7-.65,2.27-.51,1.91-.48,3.56.09,4.96.57,1.4,1.56,2.5,2.99,3.32,1.41.81,2.67,1,3.79.57Z"/>
              <path class="st32" d="M141.98,269.12c-.07-.18-.07-.36-.02-.55l5.52-18.42c.06-.21.16-.34.3-.41s.3-.04.48.06l1.16.66c.18.1.29.21.36.34.07.12.13.27.18.44l4.47,19.63,4.27-14.28c.06-.21.17-.34.32-.4.15-.06.31-.04.49.07l1.19.68c.19.11.33.26.4.45.08.18.09.38.03.59l-5.51,18.39c-.05.19-.16.32-.32.38-.15.07-.32.05-.49-.05l-1.19-.68c-.3-.17-.47-.42-.51-.75l-4.52-19.49-4.24,14.16c-.06.18-.16.31-.31.36-.15.06-.31.04-.48-.06l-1.21-.7c-.18-.1-.3-.24-.37-.43Z"/>
              <path class="st19" d="M162.95,280.85c-.92-1.1-1.53-2.21-1.84-3.32-.32-1.12-.35-2.15-.12-3.09.05-.15.14-.25.27-.3.14-.05.29-.03.45.06l1.29.74c.32.18.48.5.49.94-.08.88.17,1.82.74,2.82.57,1,1.56,1.9,2.94,2.7,1.5.86,2.7,1.21,3.61,1.07.91-.14,1.51-.71,1.81-1.71.2-.64.17-1.27-.07-1.89-.23-.62-.66-1.29-1.28-2.01-.62-.72-1.57-1.71-2.86-2.98-1.23-1.19-2.17-2.25-2.83-3.18-.66-.93-1.09-1.85-1.29-2.78-.2-.92-.14-1.9.18-2.95.3-1.02.82-1.78,1.58-2.29.74-.5,1.67-.71,2.78-.62,1.1.09,2.32.52,3.64,1.27,1.37.79,2.46,1.72,3.29,2.8.82,1.08,1.37,2.15,1.65,3.23.27,1.07.31,2.01.11,2.82-.05.17-.15.28-.28.33-.14.05-.29.04-.45-.06l-1.32-.76c-.14-.08-.26-.2-.35-.37-.1-.16-.14-.36-.14-.58.14-.86-.09-1.77-.66-2.72-.59-.95-1.43-1.75-2.53-2.38-1.19-.68-2.22-.98-3.07-.89-.85.09-1.43.63-1.72,1.61-.19.66-.19,1.29.01,1.89.2.6.59,1.26,1.17,1.97.57.7,1.46,1.64,2.63,2.8,1.36,1.31,2.4,2.44,3.12,3.38.72.94,1.18,1.86,1.4,2.77.22.91.18,1.9-.14,2.95-.53,1.77-1.57,2.79-3.12,3.05-1.55.27-3.4-.21-5.55-1.45-1.44-.83-2.62-1.78-3.53-2.89Z"/>
              <path class="st53" d="M181.74,291.95c-.08-.19-.09-.37-.04-.56l4.99-16.67-5.09-2.92c-.17-.1-.3-.25-.38-.43-.08-.19-.09-.38-.03-.56l.33-1.1c.06-.21.17-.34.32-.39.14-.06.31-.04.49.07l12.65,7.26c.2.11.33.26.39.44.07.18.07.38,0,.59l-.33,1.1c-.06.19-.16.31-.31.36-.15.06-.31.04-.48-.06l-5.07-2.91-4.99,16.68c-.06.18-.17.3-.33.36-.16.05-.33.03-.5-.07l-1.27-.73c-.18-.1-.3-.25-.38-.43Z"/>
              <path class="st56" d="M193.57,298.74c-.07-.18-.07-.37-.01-.56l5.51-18.42c.06-.21.17-.34.3-.4.15-.07.3-.05.48.06l6.44,3.69c2.01,1.15,3.42,2.55,4.25,4.21.83,1.66.96,3.45.39,5.37-.43,1.43-1.12,2.41-2.06,2.95-.95.54-2.07.64-3.37.32l1.8,9.86c.02.15.01.27-.01.36-.05.15-.13.25-.27.31-.14.05-.29.04-.42-.04l-1.16-.66c-.27-.15-.46-.34-.56-.56s-.19-.48-.24-.8l-1.72-9.44-4.69-2.7-2.2,7.34c-.06.19-.17.31-.33.36-.16.05-.32.03-.5-.08l-1.26-.72c-.17-.1-.3-.24-.37-.42ZM203.35,292.5c2.66,1.52,4.34,1.09,5.06-1.3.72-2.38-.26-4.34-2.91-5.87l-4.42-2.54-2.15,7.17,4.42,2.54Z"/>
              <path class="st82" d="M213.45,308.39c-.84-2.01-.87-4.34-.07-7l3.43-11.46c.06-.2.17-.34.31-.4.14-.06.3-.04.47.06l1.26.73c.2.11.33.26.4.44.08.19.09.39.03.59l-3.45,11.51c-.56,1.84-.57,3.45-.04,4.81.53,1.36,1.53,2.46,3.01,3.31,1.46.83,2.72,1.03,3.8.57,1.07-.46,1.88-1.59,2.43-3.42l3.45-11.51c.07-.2.17-.34.31-.4.14-.06.3-.04.5.08l1.26.72c.18.1.3.25.38.43.07.19.08.39.02.59l-3.43,11.45c-.8,2.65-2,4.28-3.61,4.89-1.61.61-3.55.26-5.82-1.04-2.26-1.3-3.82-2.96-4.65-4.97Z"/>
              <path class="st69" d="M232.15,319.03c-.82-2.07-.91-4.31-.29-6.73.13-.52.37-1.35.71-2.5.35-1.17.61-2.01.79-2.53.8-2.32,2.01-3.81,3.64-4.47s3.61-.33,5.95,1.02c1.57.9,2.81,1.96,3.72,3.18s1.5,2.47,1.76,3.74c.27,1.28.26,2.47,0,3.6-.05.17-.15.27-.3.31-.14.04-.3.01-.46-.08l-1.32-.76c-.18-.1-.3-.23-.38-.39s-.11-.36-.09-.61c.13-1.62-.1-2.94-.71-3.97-.61-1.04-1.58-1.93-2.92-2.7-3.06-1.76-5.19-.85-6.41,2.73-.17.5-.42,1.28-.73,2.33-.32,1.06-.55,1.86-.69,2.41-.96,3.71.09,6.43,3.14,8.18,1.32.76,2.46,1.07,3.43.94.97-.13,1.81-.82,2.54-2.08.12-.19.25-.31.38-.34.13-.04.29,0,.47.1l1.32.76c.15.09.27.22.36.39.08.17.09.34.05.51-.38,1.06-.99,1.91-1.83,2.55-.84.64-1.9.94-3.17.91-1.26-.03-2.68-.5-4.24-1.39-2.33-1.34-3.91-3.05-4.73-5.11Z"/>
              <path class="st29" d="M252.82,332.74c-.08-.19-.09-.38-.03-.56l5-16.68-5.09-2.92c-.18-.11-.3-.25-.38-.43-.08-.19-.09-.38-.03-.57l.33-1.1c.07-.21.17-.34.32-.4.15-.06.31-.03.49.07l12.66,7.27c.19.1.32.26.39.44.07.19.07.38,0,.59l-.33,1.1c-.06.19-.17.31-.31.37-.15.06-.31.04-.49-.06l-5.06-2.91-4.99,16.68c-.06.19-.17.31-.32.36-.16.05-.33.03-.5-.07l-1.26-.73c-.18-.1-.3-.25-.38-.43Z"/>
              <path class="st44" d="M264.64,339.53c-.07-.18-.07-.37-.01-.56l5.52-18.45c.05-.19.15-.31.3-.38.14-.06.3-.04.47.06l1.32.76c.19.1.33.25.4.43.07.17.08.36.01.57l-5.52,18.45c-.06.18-.16.31-.31.36-.15.06-.31.04-.49-.07l-1.32-.76c-.17-.1-.3-.25-.37-.43Z"/>
              <path class="st66" d="M274.02,343.19c-.87-2.01-.94-4.33-.23-6.96.15-.57.38-1.38.69-2.41.31-1.04.55-1.82.73-2.36.83-2.52,2.1-4.06,3.79-4.64,1.68-.57,3.62-.23,5.82,1.03,2.2,1.26,3.74,2.92,4.63,4.97.89,2.05.98,4.38.29,6.97-.29,1.11-.52,1.91-.66,2.4-.14.47-.4,1.26-.77,2.37-.85,2.55-2.09,4.12-3.71,4.7-1.63.58-3.58.21-5.87-1.11-2.28-1.31-3.86-2.96-4.72-4.97ZM283.23,346.39c1.12-.43,1.99-1.56,2.63-3.4.37-1.11.61-1.85.73-2.23.12-.41.33-1.17.62-2.28.49-1.93.46-3.59-.12-5-.56-1.41-1.55-2.51-2.96-3.32-1.4-.81-2.67-.99-3.8-.56-1.13.44-2,1.58-2.62,3.43-.18.53-.41,1.28-.7,2.24-.28.94-.49,1.69-.65,2.27-.51,1.91-.48,3.57.09,4.96.57,1.39,1.57,2.5,2.99,3.32,1.41.81,2.67.99,3.79.57Z"/>
              <path class="st60" d="M290.9,354.6c-.07-.18-.08-.37-.02-.56l5.51-18.42c.07-.2.17-.34.3-.4.15-.06.3-.04.48.06l1.16.67c.18.1.3.21.36.34.06.12.12.27.18.43l4.47,19.62,4.28-14.28c.06-.21.17-.34.32-.39.15-.06.31-.04.49.07l1.19.68c.19.11.33.26.4.44.08.19.08.39.02.6l-5.51,18.39c-.05.19-.16.32-.31.38-.15.07-.32.05-.49-.05l-1.19-.68c-.3-.17-.47-.42-.51-.76l-4.51-19.49-4.24,14.17c-.06.18-.16.31-.31.37-.15.06-.32.03-.49-.07l-1.21-.7c-.18-.1-.3-.24-.37-.43Z"/>
            </g>
          </g>
        </g>
      </g>
    </g>
  </g>
</svg>